#!OML:ASF F:\VICON\USERDATA\INSTALL\rory3\rory3.ASF
:FULLY-SPECIFIED
:DEGREES
3133
root 0.452833 16.1728 -0.85203 4.31791 11.7092 0.95044
lowerback 18.0346 2.46707 4.97035
upperback 3.82967 4.39156 3.03852
thorax -5.83104 2.091 -0.558835
lowerneck -9.17286 11.1325 -2.6531
upperneck 6.11179 14.8247 5.07794
head 2.96018 7.51061 2.84523
rclavicle 3.65764e-014 -2.38542e-014
rhumerus -7.35567 20.2295 -71.8021
rradius 119.994
rwrist 16.3632
rhand 28.1572 5.48901
rfingers 7.12502
rthumb 52.0428 -14.5912
lclavicle 3.65764e-014 -2.38542e-014
lhumerus 8.84011 -35.3443 69.8093
lradius 116.019
lwrist 8.08225
lhand 4.79713 36.461
lfingers 7.12502
lthumb 30.1765 64.0162
rfemur -8.18696 10.7377 14.683
rtibia 20.3344
rfoot -13.9593 -22.5317
rtoes -0.0206106
lfemur -10.8093 -16.0866 -17.0824
ltibia 13.6323
lfoot -3.45333 4.00827
ltoes -9.62056
3134
root 0.445576 16.1658 -0.88775 4.50987 11.9913 1.14874
lowerback 18.3787 2.46949 4.91393
upperback 3.97391 4.40761 3.13343
thorax -5.87183 2.10058 -0.44337
lowerneck -8.94718 11.1058 -2.67919
upperneck 6.13454 14.7789 5.20714
head 2.91572 7.49095 2.87104
rclavicle 7.95139e-014 2.54444e-014
rhumerus -6.96269 20.3608 -71.4534
rradius 120
rwrist 16.3175
rhand 28.3361 5.54277
rfingers 7.12502
rthumb 52.205 -14.4403
lclavicle 7.95139e-014 2.54444e-014
lhumerus 9.08886 -35.2392 69.6182
lradius 116.028
lwrist 8.12948
lhand 5.6636 35.9235
lfingers 7.12502
lthumb 31.0027 63.3244
rfemur -8.86223 10.6321 14.4047
rtibia 21.0651
rfoot -14.0592 -22.661
rtoes -0.885814
lfemur -11.3032 -16.2171 -17.1908
ltibia 13.8327
lfoot -3.35717 3.84734
ltoes -9.86119
3135
root 0.440619 16.1587 -0.921562 4.74987 12.2739 1.32738
lowerback 18.6654 2.45054 4.95859
upperback 4.09323 4.40701 3.16044
thorax -5.89533 2.10031 -0.450426
lowerneck -8.79345 11.0625 -2.66578
upperneck 6.2498 14.6973 5.44401
head 2.91308 7.45886 2.93568
rclavicle 2.54444e-014 -1.59028e-015
rhumerus -6.60253 20.3996 -71.2815
rradius 119.949
rwrist 16.253
rhand 28.5824 5.66534
rfingers 7.12502
rthumb 52.428 -14.1826
lclavicle 2.54444e-014 -1.59028e-015
lhumerus 9.4495 -35.1163 69.3097
lradius 115.895
lwrist 7.91734
lhand 7.20199 35.2394
lfingers 7.12502
lthumb 32.4679 62.3504
rfemur -9.53511 10.4065 14.1392
rtibia 21.8166
rfoot -14.4362 -22.5331
rtoes -0.147922
lfemur -11.7512 -16.2677 -17.2779
ltibia 13.8701
lfoot -3.14576 3.59716
ltoes -10.3806
3136
root 0.435531 16.1522 -0.957501 5.13846 12.5474 1.64455
lowerback 18.8318 2.44575 4.83332
upperback 4.19831 4.38315 3.16476
thorax -5.88172 2.09214 -0.375851
lowerneck -8.58474 11.0093 -2.63163
upperneck 6.26283 14.6082 5.59124
head 2.87406 7.41957 2.9579
rclavicle 3.02153e-014 3.81667e-014
rhumerus -6.23421 20.3888 -71.141
rradius 119.868
rwrist 16.2576
rhand 28.8324 5.93101
rfingers 7.12502
rthumb 52.6542 -13.7779
lclavicle 3.02153e-014 3.81667e-014
lhumerus 9.5504 -35.2516 69.0272
lradius 116.011
lwrist 8.22063
lhand 6.80264 35.2248
lfingers 7.12502
lthumb 32.0878 62.4131
rfemur -10.3289 10.0212 13.694
rtibia 22.5209
rfoot -14.7433 -22.2872
rtoes 0.704589
lfemur -12.3152 -16.3569 -17.4698
ltibia 13.8481
lfoot -2.88566 3.35993
ltoes -11.4016
3137
root 0.427479 16.1455 -0.993132 5.53667 12.7738 2.01155
lowerback 18.9788 2.46276 4.56596
upperback 4.32036 4.36027 3.20155
thorax -5.85275 2.08712 -0.185965
lowerneck -8.38677 10.9687 -2.53902
upperneck 6.29692 14.5386 5.59337
head 2.85887 7.38498 2.92792
rclavicle -4.21423e-014 -2.22639e-014
rhumerus -5.81709 20.4435 -70.9565
rradius 119.755
rwrist 16.3873
rhand 28.7788 5.95923
rfingers 7.12502
rthumb 52.6058 -13.7796
lclavicle -4.21423e-014 -2.22639e-014
lhumerus 9.52856 -35.2492 68.9216
lradius 116.244
lwrist 8.5675
lhand 5.99115 35.5772
lfingers 7.12502
lthumb 31.3149 62.9181
rfemur -11.1429 9.76516 13.2029
rtibia 23.1784
rfoot -14.84 -22.2317
rtoes 0.292785
lfemur -12.8797 -16.3873 -17.7095
ltibia 13.8003
lfoot -2.56978 3.13452
ltoes -12.5803
